<svg xmlns="http://www.w3.org/2000/svg" height="48" viewBox="0 -960 960 960" width="48"><path d="M229-59q-35.775 0-63.388-26.912Q138-112.825 138-150v-660q0-37.588 27.612-64.794Q193.225-902 229-902h502q36.188 0 64.094 27.206Q823-847.588 823-810v660q0 37.175-27.906 64.088Q767.188-59 731-59H229Zm0-91h502v-660h-50v226q0 14-12.333 20.5Q656.333-557 646-564l-40-22q-10.548-5-23.242-5-12.693 0-21.758 5l-42 22q-10 7-21 .5T487-584v-226H229v660Zm0 0v-660 660Zm258-432v-2q0 14 11 20.5t21-.5l42-22q9.29-5 21.645-5T607-586l39 22q10.333 7 22.667.5Q681-570 681-584v2q0 14.609-12.5 21.304Q656-554 646-561l-40-21q-10.548-7-23.242-7-12.693 0-21.758 7l-42 21q-10 7-21 .304-11-6.695-11-21.304Z"/></svg>