<?xml version="1.0" encoding="utf-8"?>
<svg height="48" viewBox="0 -960 960 960" width="48" xmlns="http://www.w3.org/2000/svg">
  <path d="M230.059-141q-51.559 0-88.309-34.25T103-258h-6q-35.75-3-56.375-28.625T20-349v-380q0-35.775 26.913-63.387Q73.825-820 111-820h486q34.75 0 52.375 33.125T688-729v63h72.364q12.136 0 21.591 4.5Q791.409-657 797-648l135 178q3 5.907 5.5 12.969 2.5 7.062 2.5 15.486v137.722q0 20.123-12.85 32.973Q914.3-258 894-258h-36q-2 49-38.855 83-36.856 34-87.91 34-51.887 0-88.561-34.25Q606-209.5 604-258H356q-2 49-38.65 83-36.649 34-87.291 34Zm-.077-69q24.418 0 41.718-17.982 17.3-17.983 17.3-42Q289-294 271.596-312q-17.403-18-42-18Q205-330 187.5-312.018q-17.5 17.983-17.5 42Q170-246 187.57-228t42.412 18ZM111-729v380h26.347q14.653-23 39.418-36.5 24.766-13.5 52-13.5 27.235 0 52.21 13.375Q305.951-372.25 321-349h276v-380H111Zm619.982 519q24.418 0 41.718-17.982 17.3-17.983 17.3-42Q790-294 772.596-312q-17.403-18-42-18Q706-330 688.5-312.018q-17.5 17.983-17.5 42Q671-246 688.57-228t42.412 18ZM688-424h163L738-574h-50v150ZM355-539Z" style="fill: rgb(0, 185, 242);"/>
</svg>