<svg xmlns="http://www.w3.org/2000/svg" height="48" viewBox="0 -960 960 960" width="48"><path d="M239-199h484l-58.149-404H296l-57 404Zm241-495q23.95 0 39.475-15.238Q535-724.475 535-748q0-23.95-15.518-38.975Q503.965-802 479.982-802q-23.957 0-38.469 15.374Q427-771.252 427-747.482q0 23.019 14.737 38.251Q456.475-694 480-694Zm126 0h60q32.243 0 58.622 23Q751-648 755-616l58 404q5 43-21.869 74T723-107H239q-42.143 0-69.571-31Q142-169 148-212l57-404q4-32 30.311-55T296-694h60q-5-11-9-24.9-4-13.9-4-29.1 0-56.667 39.968-97.333Q422.936-886 480.176-886q57.241 0 98.032 40.667Q619-804.667 619-748q0 15.333-5 29.167Q609-705 606-694ZM239-199h484-484Z"/></svg>