<?xml version="1.0" encoding="utf-8"?>
<svg height="48" viewBox="0 -960 960 960" width="48" xmlns="http://www.w3.org/2000/svg">
  <path d="M 480 -215.886 L 305 -141.886 C 275 -129.22 246.333 -131.699 219 -149.325 C 191.667 -166.951 178 -192.472 178 -225.886 L 178 -775.886 C 178 -800.678 187.204 -822.21 205.612 -840.48 C 224.021 -858.751 245.15 -867.886 269 -867.886 L 691 -867.886 C 715.125 -867.886 736.49 -858.751 755.094 -840.48 C 773.698 -822.21 783 -800.678 783 -775.886 L 783 -225.886 C 783 -192.472 769.167 -166.951 741.5 -149.325 C 713.833 -131.699 685 -129.22 655 -141.886 L 480 -215.886 Z" style="fill: rgb(254, 191, 0);"/>
</svg>