<svg xmlns="http://www.w3.org/2000/svg" height="48" viewBox="0 -960 960 960" width="48"><path d="M481.837-133q-8.368 0-17.103-2.5Q456-138 449-142q-43-28-90.065-44.5T260.6-203q-40.6 0-78.943 11-38.343 11-73.019 30Q76-146 47-163.862 18-181.723 18-216v-480q0-21.146 9-39.242Q36-753.339 55-763q45.63-22 97.815-33.5Q205-808 258.181-808q59.317 0 115.568 14.635Q430-778.731 480-746.286V-216q51-32 107-50.672 56-18.672 113-18.672 36 0 78.5 7.877t81.124 30.631V-782q12.242 5.75 22.643 10.375T906-763q18 10.389 27 27.989 9 17.601 9 39.011v492q0 30-29.5 44t-61.5-2q-34.178-19-72.496-30-38.317-11-78.054-11-50.283 0-96.391 16.814Q557.95-169.372 516-142q-7 4-15.913 6.5t-18.25 2.5ZM580-345q-11 10-25.5 4.583Q540-345.833 540-362v-315q0-4.649 1.5-8.218 1.5-3.568 4.61-6.892L759-909q11-10 26-4.125T800-893v342.971q0 5.529-2 8.979-2 3.45-5.11 7.152L580-345Zm-182 88v-437q-28-15-67.491-23-39.49-8-69.764-8-48.235 0-88.49 8.5Q132-708 100-694.467V-249q34.673-17.96 75.837-26.98Q217-285 260.5-285q38.557 0 74.029 7.48Q370-270.04 398-257Zm0 0v-438 438Z"/></svg>