<?xml version="1.0" encoding="utf-8"?>
<svg height="48" viewBox="0 -960 960 960" width="48" xmlns="http://www.w3.org/2000/svg">
  <path d="M150-639h660v-91H150v91Zm-91-91q0-37.588 26.912-64.794Q112.825-822 150-822h660q37.588 0 64.794 27.206Q902-767.588 902-730v225H150v276h186q18.375 0 31.688 12.675Q381-203.649 381-184.009q0 19.641-13.312 32.825Q354.375-138 336-138H150q-37.175 0-64.088-27.612Q59-193.225 59-229v-501Zm91 0v501-114.009V-267v-463Zm458 548 201-200q12.067-12 30.033-12 17.967 0 30.315 13 12.902 13 13.277 30T869-320L641-92q-13.636 13-32.818 13T577-92L460-209q-14.333-14-13.667-31.633.667-17.634 14.794-30.671Q473.661-284 491.33-283.5 509-283 523-270l85 88Z" style="fill: rgb(0, 185, 242);"/>
</svg>