<?xml version="1.0" encoding="utf-8"?>
<svg height="48" viewBox="0 -960 960 960" width="48" xmlns="http://www.w3.org/2000/svg">
  <path d="m439-439-77-77q-9.091-9-24.045-9Q323-525 313-515.316q-9 9.551-9 24.267T313-467l91 92q12.545 15 32.091 15 19.545 0 32.909-15l177-176q10-9 10-23t-9.289-25q-11.29-10-25.467-9.5T598-598L439-439Zm41 375q-8.2 0-15.8-1.25Q456.6-66.5 451-70q-143-46-228-175.838t-85-277.268V-712q0-29.087 16.115-53.057Q170.231-789.027 198-799l251-94q14-5 31-5t32 5l251 94q26.788 9.513 43.394 33.625Q823-741.264 823-712v188.894q0 147.43-85.5 277.268Q652-116 510-70q-6.6 3-14.2 4.5T480-64Zm0-88q109-43 180-143.831 71-100.83 71-227.318V-712.1L480-806l-251 94.384v188.003q0 126.952 71 227.782Q371-195 480-152Zm0-328Z" style="fill: rgb(0, 185, 242);"/>
</svg>