<?xml version="1.0" encoding="utf-8"?>
<svg height="48" viewBox="0 -960 960 960" width="48" xmlns="http://www.w3.org/2000/svg">
  <path d="M 835.206 -535.294 L 480 -299 L 126.35 -536.475 L 368.348 -574.378 L 733 -502 L 551 -518 L 480.661 -228.275 L 409 -519 L 227 -503 L 592.178 -574.386 L 835.206 -535.294 Z M 480 -229 L 294 -117 C 288.667 -113.667 283 -112.167 277 -112.5 C 271 -112.833 265.667 -114.667 261 -118 C 256.333 -121.333 252.833 -125.667 250.5 -131 C 248.167 -136.333 247.667 -142.333 249 -149 L 298 -361 L 134 -504 C 128.667 -508.667 125.5 -513.833 124.5 -519.5 C 123.5 -525.167 123.667 -530.667 125 -536 C 126.333 -541.333 129.333 -545.833 134 -549.5 C 138.667 -553.167 144.333 -555.333 151 -556 L 368 -575 L 452 -775 C 454.667 -781 458.667 -785.5 464 -788.5 C 469.333 -791.5 474.667 -793 480 -793 C 485.333 -793 490.667 -791.5 496 -788.5 C 501.333 -785.5 505.333 -781 508 -775 L 592 -575 L 809 -556 C 815.667 -555.333 821.333 -553.167 826 -549.5 C 830.667 -545.833 833.667 -541.333 835 -536 C 836.333 -530.667 836.5 -525.167 835.5 -519.5 C 834.5 -513.833 831.333 -508.667 826 -504 L 662 -361 L 711 -149 C 712.333 -142.333 711.833 -136.333 709.5 -131 C 707.167 -125.667 703.667 -121.333 699 -118 C 694.333 -114.667 689 -112.833 683 -112.5 C 677 -112.167 671.333 -113.667 666 -117 L 480 -229 Z M 480 -435 Z" style="fill: rgb(254, 191, 0);"/>
</svg>